<svg aria-hidden="true" style="position:absolute;width:0;height:0" xmlns="http://www.w3.org/2000/svg" overflow="hidden"><defs><symbol id="icon-letter-pic" viewBox="0 0 43 32"><path d="M37.3 0h-32a4 4 0 00-4 4v24a4 4 0 004 4h32a4 4 0 004-4V4a4 4 0 00-4-4zm-.8 8.5l-14.1 8.8a2 2 0 01-2.1 0L6 8.5c-.5-.3-.8-.9-.8-1.4 0-1.4 1.5-2.2 2.6-1.5L21.3 14l13.4-8.4a1.7 1.7 0 111.8 2.9z"/></symbol><symbol id="icon-phone-pic" viewBox="0 0 32 32"><path d="M27.4 20.9l-4.2-.5c-1-.1-2 .2-2.7 1l-3 3a24.9 24.9 0 01-11-11l3.1-3c.7-.7 1-1.7 1-2.7L10 3.5c-.2-1.7-1.6-3-3.3-3H3.9A3.3 3.3 0 00.6 4 28.1 28.1 0 0027 30.3c1.9.1 3.4-1.4 3.4-3.3V24c0-1.6-1.2-3-2.9-3.2z"/></symbol><symbol id="icon-name-pic" viewBox="0 0 32 32"><path fill="" d="M16 16a8 8 0 100-16 8 8 0 000 16zm0 4c-5.3 0-16 2.7-16 8v2c0 1.1.9 2 2 2h28a2 2 0 002-2v-2c0-5.3-10.7-8-16-8z"/></symbol></defs></svg>