<svg aria-hidden="true" style="position:absolute;width:0;height:0" xmlns="http://www.w3.org/2000/svg" overflow="hidden"><defs><symbol id="icon-insta" viewBox="0 0 32 32"><path d="M32 16A16 16 0 014.7 27.3 16 16 0 0116 0a16 16 0 0116 16z"/><path fill="var(--color2, #afb1b8)" d="M23.3 13c0-.8-.2-1.3-.4-1.8s-.4-.9-.8-1.3l-1.3-.8a49.4 49.4 0 00-9.5 0L10 10c-.4.4-.7.9-.9 1.3-.1.5-.3 1-.3 1.8a49.8 49.8 0 00.3 7.8c.2.5.5.9.9 1.3l1.3.8a53.3 53.3 0 009.5 0c1-.4 1.7-1.2 2.1-2.1l.4-1.8v-3-3zm-1.4 6c0 .7-.1 1-.2 1.3-.2.6-.7 1.1-1.4 1.4a51.2 51.2 0 01-8.6 0c-.3-.1-.6-.3-.8-.6l-.5-.8a51.2 51.2 0 010-8.6c0-.3.3-.6.5-.8.2-.3.5-.4.8-.6a51.2 51.2 0 018.6 0l.9.6.5.8.2 1.4v5.8z"/><path fill="var(--color2, #afb1b8)" d="M16 12.3a3.7 3.7 0 100 7.4 3.7 3.7 0 000-7.4zm0 6.1a2.4 2.4 0 110-4.8 2.4 2.4 0 010 4.8zM20.8 12.1a.9.9 0 11-1.8 0 .9.9 0 011.8 0z"/></symbol><symbol id="icon-facebook" viewBox="0 0 32 32"><path fill="var(--color1, #fff)" d="M32 16A16 16 0 014.7 27.3 16 16 0 0116 0a16 16 0 0116 16z"/><path fill="var(--color2, #afb1b8)" d="M18.4 11.1h1.4V8.8h-2c-1.9 0-3.2 1.1-3.2 3.3v2h-2.1v2.7h2v6.5h2.7v-6.5h2l.3-2.6h-2.3v-1.8c0-.7.2-1.3 1.2-1.3z"/></symbol><symbol id="icon-linkedin" viewBox="0 0 32 32"><path fill="var(--color1, #fff)" d="M32 16A16 16 0 014.7 27.3 16 16 0 0116 0a16 16 0 0116 16z"/><path fill="var(--color2, #afb1b8)" d="M23.3 23.3v-5.4c0-2.6-.6-4.6-3.6-4.6-1.5 0-2.5.8-2.9 1.6v-1.3h-3v9.7h3v-4.8c0-1.3.3-2.5 1.9-2.5 1.5 0 1.6 1.4 1.6 2.5v4.8h3zM9 13.6h3v9.7H9v-9.7zM10.5 8.7c-1 0-1.8.8-1.8 1.8s.8 1.7 1.8 1.7 1.7-.8 1.7-1.7-.8-1.8-1.7-1.8z"/></symbol><symbol id="icon-twitter" viewBox="0 0 32 32"><path fill="var(--color1, #fff)" d="M32 16A16 16 0 014.7 27.3 16 16 0 0116 0a16 16 0 0116 16z"/><path fill="var(--color2, #afb1b8)" d="M23.3 11.5l-1.7.5c.6-.4 1-1 1.3-1.7a6 6 0 01-2 .7 3 3 0 00-5 2.8 8.4 8.4 0 01-6.2-3.2 3 3 0 001 4 3 3 0 01-1.4-.3 3 3 0 002.4 3 3 3 0 01-1.3 0 3 3 0 002.7 2 6 6 0 01-4.4 1.3c1.3.8 3 1.3 4.6 1.3a8.4 8.4 0 008.5-8.9c.6-.4 1-.9 1.5-1.5z"/></symbol></defs></svg>