<svg aria-hidden="true" style="position:absolute;width:0;height:0" xmlns="http://www.w3.org/2000/svg" overflow="hidden"><defs><symbol id="icon-phone-hover" viewBox="0 0 20 32"><path fill="" d="M17 0H3a3 3 0 00-3 3v26a3 3 0 003 3h14a3 3 0 003-3V3a3 3 0 00-3-3zM3 2h14c.6 0 1 .4 1 1v21H2V3c0-.6.4-1 1-1zm14 28H3a1 1 0 01-1-1v-3h16v3c0 .6-.4 1-1 1z"/></symbol><symbol id="icon-letter-hover" viewBox="0 0 43 32"><path fill="" d="M38.7 0H4a4 4 0 00-4 4v24a4 4 0 004 4h34.7a4 4 0 004-4V4a4 4 0 00-4-4zm0 2.7h.5L21.3 18.3 3.5 2.8l.5-.1h34.7zm0 26.6H4c-.7 0-1.3-.6-1.3-1.3V5.6L20.5 21c.2.2.5.3.8.3s.7 0 1-.3L40 5.6V28c0 .7-.6 1.3-1.3 1.3z"/></symbol></defs></svg>