<svg aria-hidden="true" style="position:absolute;width:0;height:0" xmlns="http://www.w3.org/2000/svg" overflow="hidden"><defs><symbol id="icon-facebook" viewBox="0 0 18 32"><path fill="" d="M13.3 5.3h3v-5C15.7.1 14 0 12 0 7.8 0 4.9 2.6 4.9 7.5V12H.2v5.7H5V32h5.7V17.7h4.5l.7-5.7h-5.2V8c0-1.6.4-2.7 2.7-2.7z"/></symbol><symbol id="icon-linkedin" viewBox="0 0 32 32"><path fill="" d="M32 32V20.3c0-5.8-1.2-10.2-8-10.2a7 7 0 00-6.2 3.4h-.1v-2.9h-6.4V32H18V21.4c0-2.8.6-5.5 4-5.5s3.5 3.2 3.5 5.7V32H32zM.5 10.6h6.7V32H.5V10.6zM3.8 0C1.8 0 0 1.7 0 3.8s1.7 4 3.8 4c2.2 0 3.9-1.8 3.9-4C7.7 1.8 6 0 3.8 0z"/></symbol><symbol id="icon-twitter" viewBox="0 0 36 32"><path fill="" d="M35.6 5c-1.4.6-2.8 1-4.2 1.1a7.2 7.2 0 003.2-4c-1.4.8-3 1.4-4.7 1.8a7.3 7.3 0 00-12.4 6.6c-6-.3-11.4-3.2-15-7.6a7.3 7.3 0 002.2 9.7c-1.2 0-2.3-.3-3.3-.9v.1c0 3.5 2.6 6.5 5.9 7.2A7.3 7.3 0 014 19c1 3 3.6 5 6.8 5.2a14.6 14.6 0 01-10.8 3c3.2 2 7 3.2 11.2 3.2A20.6 20.6 0 0031.9 8.8c1.5-1 2.7-2.3 3.7-3.8z"/></symbol><symbol id="icon-instagram" viewBox="0 0 32 32"><path fill="" d="M32 9.4c-.1-1.7-.4-2.9-.8-3.9s-1-2-1.8-2.8A7.9 7.9 0 0026.5.8c-1-.4-2.1-.6-3.8-.7A109.5 109.5 0 005.6.8c-1 .4-2 1-2.9 1.9C2 3.5 1.3 4.5 1 5.5.5 6.5.2 7.7.2 9.4a109.5 109.5 0 00.7 17c.4 1.2 1 2.1 1.8 3 .8.7 1.8 1.4 2.9 1.8 1 .4 2.2.6 3.9.7a117.2 117.2 0 0017-.7 8.2 8.2 0 004.7-4.7c.4-1 .7-2.2.8-3.9V16 9.4zm-3 13c0 1.6-.2 2.5-.5 3a5.3 5.3 0 01-3 3c-.6.3-1.4.6-3 .6a112.7 112.7 0 01-15.9-.5 5 5 0 01-1.8-1.2 5 5 0 01-1.2-1.9c-.2-.5-.5-1.4-.5-3a112.7 112.7 0 01.5-15.8c.3-.7.7-1.3 1.2-1.9a5 5 0 011.8-1.1c.6-.3 1.5-.5 3-.6a112.7 112.7 0 0115.9.6 5 5 0 011.8 1.1 5 5 0 011.2 1.9c.3.5.5 1.4.6 3a112.7 112.7 0 010 12.9z"/><path fill="" d="M16 7.8a8.2 8.2 0 100 16.4 8.2 8.2 0 000-16.4zm0 13.5a5.3 5.3 0 110-10.6 5.3 5.3 0 010 10.6zM26.5 7.5a2 2 0 11-3.8 0 2 2 0 013.8 0z"/></symbol></defs></svg>