<svg aria-hidden="true" style="position:absolute;width:0;height:0" xmlns="http://www.w3.org/2000/svg" overflow="hidden"><defs><symbol id="icon-twitt" viewBox="0 0 36 32"><path fill="var(--color1, #afb1b8)" d="M35.6 5c-1.4.6-2.8 1-4.2 1.1a7.2 7.2 0 003.2-4c-1.4.8-3 1.4-4.7 1.8a7.3 7.3 0 00-12.4 6.6c-6-.3-11.4-3.2-15-7.6a7.3 7.3 0 002.2 9.7c-1.2 0-2.3-.3-3.3-.9v.1c0 3.5 2.6 6.5 5.9 7.2A7.3 7.3 0 014 19c1 3 3.6 5 6.8 5.2a14.6 14.6 0 01-10.8 3c3.2 2 7 3.2 11.2 3.2A20.6 20.6 0 0031.9 8.8c1.5-1 2.7-2.3 3.7-3.8z"/></symbol></defs></svg>